<svg width="250" height="250" viewBox="0 0 250 250" fill="none" xmlns="http://www.w3.org/2000/svg">
<path d="M103.167 140.833C120.195 140.833 134 127.029 134 110C134 92.9712 120.195 79.1666 103.167 79.1666C86.1378 79.1666 72.3333 92.9712 72.3333 110C72.3333 127.029 86.1378 140.833 103.167 140.833Z" fill="#D6E5FE"/>
<path d="M110.711 93.3756C110.711 89.9239 113.536 87.1255 117.022 87.1255C120.507 87.1255 123.332 89.9239 123.332 93.3756C123.453 93.2549 110.711 93.3756 110.711 93.3756Z" fill="white"/>
<path d="M124.128 93.3757H122.535C122.535 90.3409 120.061 87.8627 117.022 87.8627C113.983 87.8627 111.509 90.3425 111.509 93.3757H109.916C109.916 89.5069 113.103 86.2697 117.022 86.2697C120.941 86.2697 124.128 89.5072 124.128 93.3757Z" fill="#A1C3FC"/>
<path d="M112.583 123.029C116.035 123.029 118.834 125.853 118.834 129.339C118.834 132.824 116.035 135.649 112.583 135.649C112.583 135.649 112.596 123.017 112.583 123.029Z" fill="white"/>
<path d="M112.583 136.443V134.85C115.618 134.85 118.096 132.377 118.096 129.337C118.096 126.297 115.617 123.824 112.583 123.824V122.231C116.452 122.231 119.69 125.419 119.69 129.337C119.69 133.256 116.452 136.443 112.583 136.443Z" fill="#A1C3FC"/>
<path d="M81.7678 103.359C78.3162 103.359 75.7333 106.191 75.5177 109.67C75.2365 114.209 81.6891 116.275 81.7678 115.98V103.359Z" fill="white"/>
<path d="M81.7679 116.774V115.181C78.7331 115.181 76.2549 112.707 76.2549 109.668C76.2549 106.629 78.7347 104.155 81.7679 104.155V102.562C77.8992 102.562 74.6619 105.749 74.6619 109.668C74.6619 113.587 77.8992 116.774 81.7679 116.774Z" fill="#A1C3FC"/>
<path d="M121.242 101.281H111.17L119.189 90.9401L120.813 92.1997L115.364 99.225H121.242V101.281Z" fill="#A1C3FC"/>
<path d="M78.4346 122.133L80.0591 123.393L86.7931 114.708L85.1686 113.448L78.4346 122.133Z" fill="#A1C3FC"/>
<path d="M110.22 127.719H108.164V117.831H118.229V119.887H110.22V127.719Z" fill="#A1C3FC"/>
<path d="M107.264 127.263C107.245 127.197 107.282 127.128 107.348 127.107C107.411 127.09 107.477 127.128 107.495 127.191C107.495 127.192 107.496 127.194 107.496 127.194C107.515 127.263 107.479 127.332 107.413 127.351C107.348 127.366 107.284 127.326 107.264 127.263ZM110.143 126.451C110.124 126.385 110.161 126.314 110.229 126.295C110.295 126.276 110.365 126.313 110.384 126.38C110.403 126.446 110.366 126.517 110.299 126.536C110.234 126.552 110.165 126.516 110.143 126.451ZM108.753 114.651C108.785 114.592 108.86 114.57 108.919 114.603C108.978 114.635 109 114.71 108.967 114.769C108.935 114.827 108.86 114.849 108.802 114.817C108.741 114.785 108.719 114.711 108.753 114.651ZM113.98 117.573C114.012 117.514 114.087 117.492 114.146 117.524C114.206 117.559 114.228 117.634 114.199 117.698C114.16 117.756 114.084 117.776 114.021 117.743C113.964 117.706 113.945 117.632 113.98 117.573ZM116.59 119.037C116.623 118.978 116.697 118.956 116.756 118.988C116.816 119.023 116.84 119.1 116.809 119.161C116.777 119.22 116.702 119.242 116.643 119.21C116.581 119.175 116.559 119.098 116.59 119.037ZM118.641 106.942C118.622 106.876 118.659 106.805 118.726 106.786C118.787 106.767 118.851 106.799 118.87 106.858C118.872 106.862 118.873 106.868 118.873 106.874C118.894 106.937 118.86 107.005 118.797 107.026C118.731 107.046 118.66 107.009 118.641 106.942ZM108.352 121.122C108.36 121.056 108.418 121.008 108.484 121.014C108.55 121.022 108.597 121.08 108.591 121.147C108.586 121.213 108.525 121.26 108.459 121.254C108.396 121.251 108.348 121.196 108.352 121.133C108.351 121.13 108.352 121.126 108.352 121.122ZM114.295 121.819C114.306 121.754 114.367 121.71 114.432 121.72C114.498 121.728 114.546 121.785 114.539 121.851C114.532 121.917 114.474 121.966 114.408 121.958H114.407C114.338 121.951 114.288 121.892 114.295 121.825L114.297 121.822L114.295 121.819ZM117.271 122.176C117.274 122.113 117.329 122.064 117.392 122.069C117.395 122.069 117.401 122.069 117.404 122.07C117.471 122.076 117.521 122.136 117.515 122.204C117.515 122.205 117.515 122.208 117.514 122.21C117.506 122.276 117.448 122.323 117.382 122.317C117.314 122.309 117.264 122.249 117.27 122.182C117.271 122.179 117.271 122.176 117.271 122.176ZM113.884 111.169C113.846 111.111 113.856 111.035 113.908 110.989C113.962 110.947 114.043 110.956 114.087 111.013C114.131 111.069 114.121 111.148 114.063 111.192C114.006 111.23 113.93 111.22 113.884 111.169ZM115.739 113.518C115.699 113.463 115.711 113.387 115.765 113.346C115.814 113.302 115.888 113.305 115.932 113.353C115.934 113.356 115.937 113.359 115.94 113.362C115.981 113.418 115.971 113.496 115.916 113.541C115.861 113.579 115.784 113.569 115.739 113.518ZM95.4559 124.133C95.4602 124.005 95.5689 123.905 95.6966 123.909C95.6995 123.909 95.7025 123.909 95.7054 123.909C95.8316 123.915 95.9301 124.023 95.9241 124.15V124.152C95.9198 124.281 95.8111 124.381 95.6834 124.376C95.6805 124.376 95.6775 124.376 95.6746 124.376C95.5484 124.37 95.4499 124.263 95.4559 124.136V124.133ZM101.121 124.419C101.129 124.288 101.24 124.189 101.371 124.196C101.502 124.203 101.601 124.315 101.594 124.445C101.588 124.572 101.481 124.67 101.353 124.664H101.352C101.221 124.657 101.12 124.548 101.121 124.419ZM106.793 124.701C106.8 124.57 106.912 124.47 107.043 124.478C107.173 124.485 107.273 124.597 107.266 124.727C107.258 124.858 107.147 124.958 107.016 124.95C106.889 124.946 106.789 124.837 106.793 124.71C106.793 124.707 106.793 124.704 106.793 124.701ZM100.092 102.431C100.007 102.333 100.016 102.186 100.113 102.1C100.203 102.013 100.345 102.015 100.433 102.103C100.436 102.105 100.439 102.108 100.442 102.111C100.527 102.208 100.518 102.357 100.421 102.443C100.327 102.531 100.18 102.525 100.092 102.431ZM103.894 106.639C103.807 106.544 103.813 106.394 103.91 106.306C104.005 106.22 104.155 106.225 104.243 106.322C104.244 106.324 104.246 106.325 104.247 106.327C104.334 106.421 104.328 106.567 104.234 106.654C104.133 106.739 103.986 106.733 103.894 106.639ZM107.705 110.852C107.618 110.758 107.624 110.611 107.72 110.526C107.721 110.524 107.724 110.523 107.725 110.52C107.815 110.433 107.958 110.435 108.046 110.522C108.048 110.525 108.051 110.528 108.054 110.531C108.138 110.631 108.131 110.779 108.038 110.872C107.94 110.957 107.793 110.947 107.705 110.852ZM115.319 119.27C115.232 119.176 115.238 119.031 115.331 118.944C115.425 118.858 115.57 118.863 115.657 118.956C115.658 118.957 115.661 118.96 115.663 118.962C115.751 119.054 115.745 119.2 115.652 119.286C115.651 119.288 115.649 119.288 115.648 119.289C115.552 119.377 115.405 119.367 115.319 119.27ZM99.4478 133.426C99.4052 133.303 99.4698 133.169 99.5931 133.127C99.715 133.084 99.85 133.149 99.8926 133.272C99.8926 133.272 99.8926 133.274 99.894 133.275C99.9351 133.398 99.8691 133.532 99.7473 133.575C99.6254 133.617 99.4932 133.554 99.4492 133.432C99.4492 133.429 99.4478 133.428 99.4478 133.426ZM104.801 131.523C104.754 131.404 104.811 131.271 104.93 131.224C105.047 131.177 105.183 131.234 105.23 131.353C105.231 131.359 105.234 131.364 105.236 131.37C105.278 131.489 105.215 131.62 105.095 131.663C104.974 131.704 104.845 131.642 104.801 131.523ZM95.0285 113.453C95.0873 113.339 95.2267 113.293 95.3428 113.353C95.4573 113.412 95.5029 113.551 95.4427 113.667C95.3854 113.779 95.2489 113.826 95.1358 113.772C95.0197 113.71 94.9712 113.569 95.0285 113.453ZM100.155 115.887C100.214 115.773 100.354 115.727 100.47 115.787C100.584 115.846 100.63 115.986 100.57 116.102C100.512 116.213 100.376 116.26 100.261 116.204C100.147 116.146 100.1 116.005 100.155 115.887ZM105.281 118.314C105.341 118.197 105.485 118.151 105.602 118.211C105.715 118.269 105.764 118.405 105.712 118.521C105.66 118.642 105.517 118.696 105.397 118.642C105.276 118.587 105.222 118.446 105.276 118.326C105.278 118.323 105.278 118.319 105.281 118.314ZM111.007 98.9328C110.966 98.8095 111.032 98.6759 111.154 98.6333C111.273 98.5894 111.403 98.651 111.447 98.7698L111.449 98.7727C111.497 98.8872 111.444 99.0194 111.33 99.0679C111.324 99.0693 111.319 99.0722 111.312 99.0753C111.189 99.1148 111.057 99.0531 111.007 98.9328ZM112.915 104.281C112.876 104.158 112.939 104.024 113.058 103.976C113.181 103.935 113.315 104.001 113.357 104.123C113.4 104.245 113.337 104.377 113.215 104.421C113.213 104.421 113.212 104.422 113.211 104.422C113.091 104.466 112.961 104.405 112.917 104.286C112.915 104.283 112.915 104.283 112.915 104.281ZM114.82 109.623C114.774 109.507 114.831 109.376 114.947 109.332C114.95 109.33 114.955 109.329 114.958 109.329C115.077 109.282 115.213 109.341 115.26 109.46C115.261 109.464 115.263 109.467 115.264 109.47C115.307 109.593 115.242 109.727 115.119 109.77C114.996 109.812 114.862 109.748 114.819 109.624C114.821 109.626 114.821 109.624 114.82 109.623ZM116.722 114.976C116.681 114.852 116.747 114.719 116.869 114.676C116.985 114.632 117.116 114.689 117.16 114.805C117.161 114.808 117.163 114.813 117.163 114.816C117.207 114.936 117.148 115.07 117.028 115.118C116.905 115.161 116.769 115.098 116.722 114.976ZM92.7748 118.543C92.8145 118.436 92.9333 118.379 93.042 118.417C93.1508 118.455 93.2065 118.574 93.1682 118.684C93.13 118.793 93.0112 118.849 92.901 118.81C92.7939 118.769 92.7382 118.652 92.7748 118.543ZM97.5377 120.268C97.5774 120.161 97.6962 120.104 97.805 120.142C97.9151 120.177 97.9737 120.295 97.9386 120.405C97.9034 120.515 97.7858 120.574 97.6757 120.539C97.6713 120.537 97.6683 120.536 97.6639 120.534C97.5569 120.499 97.4995 120.383 97.5347 120.276C97.5361 120.274 97.5377 120.27 97.5377 120.268ZM102.311 122.142C102.284 122.096 102.281 122.042 102.302 121.992C102.342 121.885 102.46 121.828 102.569 121.866C102.681 121.906 102.74 122.026 102.7 122.137C102.7 122.139 102.7 122.139 102.698 122.14C102.675 122.206 102.621 122.256 102.553 122.274L102.546 122.278C102.507 122.29 102.466 122.286 102.433 122.266C102.374 122.249 102.328 122.201 102.311 122.142ZM107.065 123.716C107.106 123.605 107.228 123.55 107.336 123.591C107.446 123.632 107.502 123.754 107.461 123.862C107.421 123.97 107.302 124.027 107.194 123.989C107.082 123.949 107.023 123.829 107.063 123.717C107.065 123.719 107.065 123.717 107.065 123.716ZM107.166 102.966C107.121 102.857 107.166 102.732 107.272 102.681C107.373 102.632 107.493 102.675 107.542 102.776C107.543 102.779 107.543 102.782 107.545 102.785C107.596 102.888 107.553 103.014 107.449 103.064C107.448 103.064 107.446 103.066 107.445 103.066C107.342 103.111 107.22 103.067 107.166 102.966ZM109.315 107.542C109.268 107.438 109.315 107.316 109.418 107.269C109.52 107.22 109.64 107.263 109.688 107.364C109.69 107.367 109.69 107.37 109.691 107.373C109.743 107.476 109.7 107.602 109.596 107.652C109.594 107.652 109.593 107.654 109.592 107.654C109.486 107.698 109.364 107.648 109.315 107.542ZM111.466 112.139C111.415 112.036 111.458 111.91 111.562 111.86C111.563 111.86 111.565 111.859 111.566 111.859C111.663 111.809 111.782 111.847 111.832 111.944C111.835 111.95 111.838 111.956 111.841 111.962C111.892 112.064 111.85 112.191 111.745 112.241C111.744 112.241 111.742 112.242 111.741 112.242C111.637 112.286 111.516 112.24 111.466 112.139ZM113.61 116.72C113.564 116.613 113.614 116.489 113.722 116.442C113.824 116.398 113.946 116.442 113.995 116.545C114.04 116.649 113.998 116.773 113.896 116.825C113.786 116.873 113.661 116.826 113.61 116.72ZM115.761 121.315C115.711 121.211 115.753 121.085 115.858 121.033C115.962 120.983 116.088 121.027 116.139 121.13V121.132C116.185 121.24 116.139 121.365 116.034 121.417C115.93 121.459 115.812 121.415 115.761 121.315ZM98.5859 129.392C98.5799 129.279 98.6666 129.182 98.7811 129.176C98.784 129.176 98.7871 129.176 98.7914 129.176C98.9016 129.168 98.9955 129.251 99.0029 129.359C99.0029 129.364 99.0044 129.368 99.0029 129.373C99.0118 129.487 98.925 129.587 98.8105 129.596C98.8077 129.596 98.8046 129.596 98.8031 129.596C98.6872 129.597 98.5918 129.506 98.5859 129.392ZM113.767 128.703C113.766 128.587 113.855 128.492 113.973 128.487C114.088 128.483 114.185 128.576 114.188 128.693C114.191 128.809 114.1 128.906 113.983 128.909C113.867 128.912 113.77 128.819 113.767 128.703ZM100.041 111.486C99.9588 111.405 99.9544 111.273 100.034 111.189C100.111 111.104 100.241 111.098 100.326 111.175C100.409 111.254 100.418 111.384 100.345 111.474C100.264 111.561 100.129 111.565 100.041 111.486ZM103.788 114.899C103.703 114.827 103.692 114.701 103.764 114.616C103.767 114.613 103.77 114.61 103.772 114.607C103.85 114.522 103.979 114.516 104.064 114.592C104.147 114.672 104.156 114.802 104.083 114.892C104.003 114.976 103.873 114.979 103.788 114.899ZM107.527 118.319C107.442 118.241 107.436 118.112 107.513 118.026C107.59 117.941 107.72 117.935 107.805 118.012C107.89 118.09 107.896 118.219 107.819 118.304C107.742 118.389 107.612 118.395 107.527 118.319ZM117.467 102.973C117.459 102.863 117.542 102.769 117.65 102.762C117.655 102.762 117.659 102.76 117.663 102.762C117.778 102.753 117.878 102.84 117.887 102.954V102.962C117.887 103.076 117.797 103.171 117.681 103.177C117.568 103.183 117.471 103.097 117.465 102.982C117.467 102.979 117.467 102.976 117.467 102.973ZM117.696 108.037C117.691 107.921 117.779 107.821 117.895 107.814C118.013 107.812 118.11 107.905 118.113 108.022C118.114 108.134 118.03 108.228 117.919 108.238C117.806 108.247 117.706 108.163 117.696 108.05C117.696 108.044 117.696 108.041 117.696 108.037ZM100.779 128.222C100.791 128.154 100.856 128.107 100.923 128.119C100.991 128.131 101.038 128.195 101.026 128.263C101.014 128.33 100.95 128.377 100.882 128.366C100.816 128.352 100.771 128.289 100.779 128.222ZM106.687 129.144C106.698 129.079 106.759 129.035 106.824 129.045C106.887 129.049 106.936 129.105 106.93 129.168C106.928 129.174 106.928 129.182 106.927 129.189C106.916 129.254 106.855 129.298 106.79 129.287C106.726 129.281 106.679 129.226 106.685 129.163C106.686 129.155 106.687 129.15 106.687 129.144ZM107.355 117.573C107.316 117.519 107.328 117.442 107.382 117.401C107.436 117.361 107.513 117.373 107.554 117.428C107.595 117.482 107.582 117.558 107.527 117.599C107.471 117.64 107.395 117.629 107.355 117.573ZM114.395 127.231C114.356 127.176 114.367 127.1 114.422 127.059C114.476 127.019 114.554 127.032 114.594 127.087C114.632 127.141 114.62 127.216 114.567 127.256C114.511 127.297 114.435 127.285 114.395 127.231ZM102.632 134.507C102.619 134.442 102.657 134.378 102.72 134.359C102.788 134.346 102.855 134.387 102.873 134.454C102.891 134.517 102.853 134.583 102.789 134.601C102.788 134.601 102.787 134.602 102.785 134.602C102.717 134.614 102.65 134.573 102.632 134.507ZM105.536 133.807C105.52 133.742 105.56 133.676 105.624 133.658C105.686 133.639 105.752 133.675 105.771 133.736C105.773 133.739 105.773 133.742 105.773 133.742C105.793 133.805 105.76 133.87 105.701 133.89C105.696 133.892 105.69 133.893 105.685 133.893C105.621 133.911 105.555 133.873 105.538 133.81C105.538 133.809 105.538 133.808 105.536 133.807ZM104.318 123.102C104.356 123.048 104.429 123.03 104.488 123.061C104.546 123.093 104.566 123.168 104.532 123.225C104.531 123.228 104.531 123.228 104.528 123.231C104.497 123.289 104.425 123.309 104.368 123.278C104.365 123.277 104.36 123.276 104.36 123.276C104.3 123.236 104.282 123.161 104.318 123.102ZM106.874 124.654C106.912 124.6 106.985 124.582 107.044 124.613C107.102 124.649 107.119 124.724 107.085 124.783C107.056 124.842 106.984 124.865 106.927 124.834C106.924 124.833 106.923 124.832 106.919 124.83C106.859 124.796 106.837 124.72 106.87 124.66C106.869 124.66 106.872 124.657 106.874 124.654ZM109.426 126.219C109.456 126.162 109.528 126.141 109.586 126.172C109.589 126.173 109.593 126.175 109.596 126.178C109.655 126.215 109.672 126.291 109.637 126.348C109.599 126.402 109.526 126.42 109.467 126.389C109.409 126.357 109.389 126.282 109.421 126.225C109.423 126.222 109.424 126.221 109.426 126.219ZM113.489 116.381C113.473 116.315 113.513 116.248 113.578 116.232C113.644 116.216 113.71 116.256 113.726 116.321C113.745 116.381 113.713 116.445 113.654 116.464C113.65 116.466 113.644 116.467 113.638 116.467C113.575 116.485 113.508 116.447 113.491 116.384L113.489 116.381ZM114.191 119.286C114.177 119.217 114.219 119.15 114.287 119.133C114.351 119.12 114.413 119.161 114.428 119.224C114.447 119.285 114.414 119.349 114.356 119.368C114.351 119.37 114.345 119.371 114.339 119.371C114.276 119.389 114.21 119.351 114.193 119.288L114.191 119.286ZM114.89 122.192C114.876 122.123 114.918 122.055 114.985 122.039C115.055 122.024 115.122 122.067 115.137 122.134C115.148 122.205 115.102 122.269 115.031 122.281C114.971 122.292 114.909 122.253 114.89 122.192ZM97.272 127.204C97.2954 127.134 97.3733 127.095 97.4438 127.12C97.4452 127.12 97.4467 127.12 97.4467 127.12C97.5201 127.144 97.5612 127.22 97.5392 127.294C97.5377 127.297 97.5363 127.301 97.5349 127.304C97.5114 127.375 97.4335 127.413 97.363 127.388C97.3616 127.388 97.3601 127.388 97.3601 127.388C97.2851 127.358 97.2469 127.278 97.272 127.204ZM100.486 128.335C100.512 128.261 100.595 128.222 100.668 128.248C100.743 128.275 100.781 128.357 100.754 128.43C100.731 128.501 100.653 128.539 100.583 128.514C100.583 128.514 100.58 128.514 100.578 128.512C100.505 128.493 100.461 128.419 100.481 128.344C100.483 128.34 100.484 128.338 100.486 128.335ZM106.849 116.605C106.814 116.542 106.839 116.461 106.9 116.428C106.904 116.425 106.91 116.423 106.915 116.42C106.984 116.388 107.067 116.419 107.1 116.488C107.129 116.56 107.103 116.641 107.037 116.68C106.966 116.711 106.881 116.679 106.849 116.605ZM108.32 119.683C108.288 119.611 108.321 119.526 108.393 119.495C108.462 119.463 108.546 119.493 108.578 119.562C108.608 119.634 108.581 119.715 108.515 119.755C108.443 119.784 108.358 119.753 108.32 119.683ZM111.29 125.833C111.252 125.771 111.271 125.689 111.334 125.651C111.34 125.648 111.347 125.643 111.353 125.64C111.422 125.608 111.506 125.639 111.538 125.708C111.572 125.779 111.544 125.864 111.475 125.901C111.405 125.933 111.322 125.902 111.29 125.833ZM98.0897 134.547C98.0823 134.469 98.1382 134.4 98.2159 134.392C98.2187 134.392 98.2202 134.392 98.2233 134.392C98.3012 134.394 98.3643 134.453 98.3715 134.53C98.3758 134.608 98.3172 134.674 98.2393 134.679C98.2379 134.679 98.2364 134.679 98.235 134.679C98.1587 134.68 98.0942 134.623 98.0897 134.547ZM101.493 134.353C101.49 134.276 101.547 134.213 101.624 134.209C101.702 134.201 101.771 134.257 101.778 134.335C101.778 134.335 101.778 134.339 101.778 134.342C101.781 134.422 101.718 134.486 101.638 134.489C101.563 134.491 101.497 134.43 101.493 134.353ZM104.902 134.166C104.895 134.094 104.947 134.03 105.019 134.024C105.024 134.022 105.027 134.024 105.032 134.024C105.106 134.015 105.174 134.066 105.184 134.14C105.184 134.143 105.184 134.146 105.185 134.15C105.193 134.228 105.137 134.297 105.059 134.304C104.981 134.312 104.912 134.256 104.905 134.178C104.902 134.174 104.902 134.169 104.902 134.166ZM102.311 122.142C102.317 122.123 102.325 122.104 102.337 122.088C102.387 122.03 102.475 122.026 102.533 122.076C102.534 122.077 102.535 122.077 102.537 122.079C102.593 122.13 102.599 122.214 102.553 122.273L102.546 122.277C102.496 122.334 102.408 122.339 102.35 122.289C102.349 122.287 102.348 122.286 102.348 122.286C102.306 122.252 102.292 122.193 102.311 122.142ZM104.896 124.561C104.839 124.513 104.83 124.426 104.879 124.367C104.879 124.367 104.879 124.366 104.88 124.366C104.931 124.307 105.02 124.3 105.083 124.345C105.138 124.401 105.144 124.489 105.096 124.551C105.043 124.61 104.953 124.614 104.896 124.561ZM107.433 126.834C107.376 126.781 107.372 126.692 107.424 126.636C107.477 126.579 107.567 126.574 107.622 126.627C107.68 126.68 107.684 126.77 107.631 126.825C107.581 126.883 107.493 126.887 107.436 126.837C107.435 126.837 107.435 126.836 107.433 126.834ZM114.016 116.435C114.012 116.357 114.071 116.291 114.149 116.287C114.15 116.287 114.152 116.287 114.153 116.287C114.229 116.284 114.293 116.341 114.297 116.418C114.306 116.491 114.254 116.559 114.181 116.569C114.178 116.569 114.175 116.569 114.171 116.57C114.093 116.573 114.024 116.514 114.016 116.435ZM114.21 119.838C114.203 119.766 114.256 119.702 114.328 119.696C114.332 119.694 114.335 119.696 114.341 119.696C114.414 119.687 114.482 119.738 114.491 119.812C114.491 119.815 114.491 119.818 114.492 119.822C114.498 119.901 114.438 119.97 114.36 119.978C114.281 119.979 114.213 119.918 114.21 119.838C114.21 119.84 114.21 119.838 114.21 119.838ZM114.397 123.246C114.392 123.168 114.452 123.102 114.529 123.098C114.605 123.093 114.671 123.152 114.677 123.228C114.685 123.306 114.629 123.375 114.551 123.383C114.548 123.383 114.547 123.383 114.544 123.383C114.469 123.382 114.404 123.324 114.397 123.246ZM89.3745 114.374C89.2806 114.278 89.2777 114.127 89.3671 114.027C89.4582 113.929 89.6109 113.923 89.7077 114.013C89.8031 114.107 89.8062 114.261 89.7151 114.359C89.6257 114.457 89.473 114.463 89.3745 114.374ZM93.6587 118.358C93.5602 118.267 93.5545 118.114 93.6441 118.018C93.7352 117.919 93.8879 117.913 93.9847 118.003C94.0832 118.094 94.0889 118.247 93.9993 118.344C93.9097 118.444 93.7572 118.449 93.6587 118.358ZM97.934 122.349C97.8387 122.255 97.8356 122.101 97.9266 122.002C98.0206 121.908 98.1733 121.908 98.2673 122.001C98.3612 122.095 98.3612 122.248 98.2687 122.342C98.1764 122.434 98.0294 122.437 97.934 122.349ZM106.494 130.325C106.398 130.232 106.395 130.077 106.486 129.979C106.579 129.884 106.73 129.88 106.827 129.973C106.921 130.064 106.925 130.214 106.836 130.311C106.743 130.409 106.592 130.415 106.494 130.325ZM111.704 103.986C111.703 103.851 111.808 103.738 111.943 103.731C112.079 103.731 112.189 103.839 112.187 103.975C112.187 104.105 112.086 104.212 111.955 104.218C111.823 104.221 111.711 104.118 111.704 103.986ZM111.91 109.831C111.907 109.699 112.01 109.587 112.142 109.579C112.275 109.573 112.388 109.677 112.394 109.811C112.4 109.944 112.296 110.057 112.162 110.063C112.03 110.066 111.919 109.963 111.91 109.831ZM112.117 115.675C112.114 115.542 112.215 115.429 112.349 115.422C112.484 115.42 112.597 115.526 112.604 115.661C112.604 115.796 112.494 115.905 112.359 115.905C112.231 115.906 112.124 115.805 112.117 115.675ZM96.0988 130.044C96.1459 129.917 96.2867 129.853 96.4131 129.9C96.5394 129.947 96.6041 130.088 96.557 130.214C96.51 130.34 96.3692 130.405 96.2427 130.358C96.118 130.308 96.0549 130.17 96.0988 130.044ZM101.58 132.098C101.621 131.971 101.757 131.902 101.884 131.943C101.886 131.945 101.888 131.945 101.89 131.945C102.014 131.993 102.077 132.133 102.033 132.259C101.988 132.385 101.85 132.452 101.724 132.404C101.722 132.404 101.721 132.403 101.721 132.403C101.597 132.359 101.534 132.221 101.58 132.098ZM107.063 134.141C107.109 134.015 107.248 133.95 107.374 133.996C107.376 133.996 107.377 133.997 107.377 133.997C107.495 134.043 107.552 134.172 107.509 134.289C107.514 134.297 107.514 134.297 107.511 134.309C107.47 134.424 107.345 134.488 107.226 134.455L107.203 134.449C107.082 134.408 107.016 134.276 107.059 134.154C107.06 134.15 107.062 134.146 107.063 134.141ZM100.273 109.631C100.223 109.508 100.277 109.367 100.395 109.307C100.518 109.257 100.658 109.313 100.712 109.433C100.769 109.552 100.719 109.694 100.6 109.75C100.599 109.75 100.597 109.752 100.596 109.752C100.474 109.809 100.33 109.755 100.273 109.631ZM102.704 114.958C102.648 114.835 102.703 114.691 102.826 114.633C102.945 114.579 103.084 114.633 103.139 114.752C103.196 114.873 103.146 115.015 103.026 115.072C102.905 115.13 102.763 115.08 102.706 114.959C102.706 114.959 102.704 114.959 102.704 114.958ZM105.131 120.277C105.074 120.158 105.124 120.016 105.241 119.96C105.243 119.96 105.244 119.959 105.246 119.959C105.366 119.9 105.513 119.948 105.573 120.07C105.632 120.191 105.583 120.338 105.461 120.398C105.341 120.457 105.194 120.408 105.134 120.286C105.134 120.285 105.131 120.28 105.131 120.277ZM107.558 125.596C107.505 125.475 107.562 125.332 107.684 125.281C107.803 125.229 107.941 125.282 107.997 125.4C108.053 125.519 108.001 125.663 107.882 125.72C107.759 125.774 107.614 125.72 107.558 125.596ZM96.9694 134.209C97.0148 134.086 97.1484 134.016 97.2763 134.05C97.4025 134.096 97.4687 134.234 97.4276 134.36C97.3924 134.483 97.2646 134.554 97.1412 134.519C97.1369 134.517 97.1324 134.516 97.1295 134.514C97.0019 134.475 96.9299 134.341 96.9694 134.213C96.9694 134.212 96.9694 134.21 96.9694 134.209ZM96.3235 110.338C96.2662 110.219 96.3192 110.075 96.438 110.018C96.557 109.96 96.7009 110.013 96.7581 110.132C96.8123 110.248 96.7655 110.388 96.651 110.448C96.5291 110.508 96.3837 110.458 96.3235 110.338ZM98.9604 115.535C98.9016 115.414 98.9501 115.268 99.072 115.208C99.1894 115.152 99.3318 115.197 99.3949 115.312C99.4523 115.434 99.4052 115.58 99.2893 115.646C99.1659 115.702 99.0221 115.653 98.9604 115.535ZM101.597 120.731C101.538 120.611 101.587 120.464 101.709 120.404C101.826 120.343 101.972 120.389 102.032 120.508C102.092 120.625 102.046 120.771 101.928 120.831C101.809 120.891 101.663 120.848 101.597 120.731ZM104.241 125.924C104.178 125.811 104.219 125.671 104.332 125.608C104.337 125.605 104.341 125.604 104.346 125.601C104.463 125.541 104.607 125.588 104.668 125.705C104.729 125.822 104.682 125.966 104.564 126.027C104.445 126.087 104.302 126.041 104.241 125.924ZM117.147 119.342C117.192 119.216 117.33 119.15 117.456 119.191C117.58 119.233 117.646 119.37 117.603 119.493C117.568 119.616 117.44 119.687 117.317 119.652C117.313 119.65 117.308 119.649 117.305 119.647C117.178 119.608 117.106 119.474 117.145 119.346C117.147 119.346 117.147 119.345 117.147 119.342ZM93.211 124.166C93.1111 124.08 93.1023 123.93 93.1876 123.83C93.1876 123.83 93.1876 123.829 93.189 123.829C93.2741 123.726 93.4254 123.711 93.5282 123.796C93.6281 123.886 93.6398 124.039 93.5547 124.141C93.4663 124.24 93.3152 124.252 93.211 124.166ZM97.6448 127.957C97.5435 127.872 97.5303 127.721 97.6154 127.618C97.7005 127.517 97.8518 127.504 97.9546 127.589C97.956 127.589 97.956 127.59 97.9575 127.592C98.0559 127.681 98.0677 127.832 97.984 127.937C97.8975 128.036 97.7476 128.045 97.6477 127.96L97.6448 127.957ZM102.066 131.747C101.966 131.656 101.96 131.501 102.051 131.4C102.137 131.305 102.284 131.294 102.384 131.375C102.487 131.463 102.497 131.618 102.411 131.72C102.322 131.825 102.167 131.835 102.066 131.747ZM108.502 109.95C108.495 109.816 108.596 109.7 108.73 109.69C108.86 109.681 108.975 109.78 108.984 109.91C108.998 110.04 108.907 110.156 108.777 110.172C108.774 110.172 108.769 110.173 108.766 110.173C108.633 110.188 108.514 110.089 108.501 109.957C108.501 109.954 108.501 109.951 108.501 109.951V109.95H108.502V109.95ZM108.951 115.76C108.944 115.626 109.045 115.51 109.179 115.5C109.311 115.491 109.424 115.589 109.433 115.72C109.448 115.849 109.357 115.965 109.226 115.981C109.223 115.981 109.219 115.983 109.216 115.983C109.082 115.996 108.963 115.899 108.95 115.767C108.95 115.765 108.95 115.763 108.95 115.763V115.76H108.951ZM109.85 127.38C109.844 127.247 109.945 127.132 110.077 127.12C110.21 127.112 110.323 127.21 110.332 127.341C110.339 127.471 110.243 127.586 110.116 127.602C109.981 127.614 109.862 127.515 109.85 127.382C109.85 127.383 109.848 127.382 109.85 127.38ZM99.3524 135.881C99.4038 135.793 99.5154 135.762 99.6034 135.813C99.6915 135.863 99.7224 135.976 99.671 136.064C99.6225 136.15 99.5139 136.179 99.4286 136.13C99.4272 136.13 99.4272 136.13 99.4258 136.129C99.3407 136.079 99.3082 135.971 99.3524 135.881ZM102.626 118.179C102.6 118.082 102.659 117.983 102.756 117.957C102.851 117.933 102.95 117.988 102.978 118.082C103.006 118.175 102.956 118.272 102.863 118.301C102.857 118.302 102.851 118.304 102.845 118.305C102.751 118.329 102.654 118.273 102.626 118.179ZM103.754 122.418C103.729 122.321 103.789 122.22 103.886 122.195C103.985 122.17 104.084 122.23 104.109 122.327C104.136 122.424 104.079 122.522 103.983 122.549C103.98 122.55 103.979 122.55 103.977 122.55C103.88 122.575 103.782 122.516 103.754 122.418ZM104.886 126.665C104.861 126.569 104.921 126.467 105.018 126.442C105.115 126.417 105.216 126.477 105.241 126.574C105.266 126.671 105.206 126.772 105.109 126.798C105.011 126.821 104.914 126.762 104.886 126.665ZM95.5658 124.272C95.5071 124.191 95.5233 124.078 95.6026 124.018C95.6849 123.964 95.7936 123.978 95.8567 124.055C95.9169 124.134 95.9007 124.247 95.8216 124.309C95.8216 124.309 95.8216 124.309 95.8201 124.31C95.7453 124.371 95.6337 124.359 95.5734 124.284C95.5718 124.279 95.5687 124.275 95.5658 124.272ZM98.2335 127.769C98.1733 127.687 98.1881 127.573 98.2658 127.508C98.3452 127.448 98.4582 127.464 98.5199 127.543C98.5815 127.618 98.5713 127.73 98.4964 127.79C98.495 127.791 98.4921 127.793 98.4905 127.794C98.4126 127.859 98.2995 127.849 98.235 127.771L98.2335 127.769ZM100.906 131.256C100.846 131.181 100.857 131.07 100.932 131.01C100.937 131.007 100.94 131.004 100.943 131.002C101.016 130.941 101.125 130.951 101.186 131.024C101.188 131.027 101.191 131.028 101.192 131.032C101.253 131.114 101.238 131.228 101.16 131.293C101.081 131.353 100.968 131.337 100.906 131.258V131.256H100.906ZM111.157 124.036C111.174 123.934 111.27 123.865 111.37 123.883C111.466 123.899 111.533 123.987 111.524 124.084C111.511 124.186 111.418 124.257 111.315 124.244C111.214 124.23 111.143 124.137 111.157 124.036ZM100.674 132.578C100.647 132.529 100.663 132.468 100.71 132.44C100.759 132.412 100.821 132.428 100.848 132.477C100.876 132.525 100.86 132.587 100.812 132.615C100.809 132.616 100.807 132.617 100.804 132.619C100.756 132.641 100.7 132.622 100.674 132.578ZM101.804 134.687C101.779 134.642 101.797 134.583 101.842 134.558C101.842 134.558 101.844 134.558 101.845 134.557C101.888 134.53 101.944 134.543 101.969 134.586C101.972 134.59 101.973 134.595 101.976 134.598C102.004 134.643 101.992 134.703 101.947 134.731C101.945 134.733 101.942 134.734 101.939 134.734C101.889 134.754 101.831 134.734 101.804 134.687ZM105.682 132.303C105.674 132.25 105.712 132.203 105.765 132.196C105.821 132.19 105.871 132.23 105.877 132.286C105.884 132.337 105.849 132.386 105.796 132.393C105.796 132.393 105.795 132.393 105.793 132.393C105.738 132.4 105.688 132.359 105.682 132.303ZM105.917 134.693C105.911 134.638 105.95 134.588 106.006 134.582C106.062 134.576 106.112 134.615 106.118 134.671C106.124 134.727 106.084 134.777 106.028 134.783C105.972 134.789 105.923 134.748 105.917 134.693ZM100.493 127.796C100.486 127.706 100.553 127.627 100.644 127.62C100.727 127.608 100.803 127.665 100.813 127.746C100.813 127.752 100.814 127.756 100.814 127.762C100.829 127.846 100.772 127.925 100.688 127.938C100.684 127.94 100.679 127.94 100.675 127.94C100.589 127.953 100.506 127.893 100.494 127.805C100.493 127.803 100.493 127.8 100.493 127.796ZM100.91 131.75C100.895 131.666 100.953 131.587 101.036 131.573C101.041 131.572 101.045 131.572 101.049 131.572C101.136 131.559 101.218 131.619 101.23 131.707C101.23 131.707 101.232 131.714 101.232 131.719C101.24 131.808 101.176 131.891 101.086 131.901C101 131.91 100.92 131.847 100.912 131.76C100.912 131.757 100.912 131.754 100.912 131.754L100.91 131.75ZM101.317 135.699C101.309 135.61 101.374 135.529 101.462 135.517C101.55 135.505 101.632 135.568 101.644 135.657C101.644 135.657 101.646 135.661 101.644 135.663C101.653 135.752 101.588 135.834 101.499 135.845C101.409 135.853 101.329 135.79 101.317 135.699ZM107.226 134.454C107.204 134.416 107.198 134.37 107.212 134.326C107.24 134.24 107.331 134.191 107.419 134.215C107.455 134.229 107.488 134.254 107.51 134.288C107.514 134.296 107.514 134.296 107.511 134.307C107.535 134.341 107.54 134.384 107.53 134.423C107.502 134.51 107.411 134.558 107.323 134.535C107.282 134.519 107.248 134.491 107.226 134.454Z" fill="white"/>
<path d="M103.545 109.984C103.193 109.759 102.829 109.527 102.474 109.277C98.6224 106.583 96.106 101.994 95.9048 97.2985C95.7035 92.6032 97.8193 87.8154 101.425 84.8027L101.99 85.4796C98.5902 88.3206 96.5948 92.8352 96.7844 97.2619C96.9739 101.689 99.3464 106.017 102.977 108.557C103.318 108.794 103.675 109.022 104.018 109.242L103.545 109.984Z" fill="#D62929"/>
<path d="M101.129 89.209L105.015 82.5729L96.9956 85.7882L100.878 86.0318L101.129 89.209Z" fill="#23286B"/>
<path d="M113.145 109.838L123.106 110.339L114.608 103.036L116.649 107.648L113.145 109.838Z" fill="#23286B"/>
<path d="M102.929 111.747C102.783 111.747 102.64 111.694 102.527 111.587C102.29 111.364 102.28 110.992 102.502 110.757C106.808 106.194 114.184 105.061 119.662 108.119C119.945 108.278 120.046 108.635 119.888 108.918C119.729 109.201 119.373 109.303 119.089 109.144C114.15 106.385 107.24 107.448 103.356 111.564C103.24 111.686 103.084 111.747 102.929 111.747Z" fill="#23286B"/>
<path d="M103.166 112.304C104.439 112.304 105.47 111.272 105.47 110C105.47 108.728 104.439 107.696 103.166 107.696C101.894 107.696 100.863 108.728 100.863 110C100.863 111.272 101.894 112.304 103.166 112.304Z" fill="#D62929"/>
<path d="M103 212.2H56.8787V215.828H103V212.2Z" fill="#89B3F4"/>
<path d="M68.9073 212.778L34.2546 214.335L9.76245 162.73L44.3862 162.667L68.9073 212.778Z" fill="#89B3F4"/>
<path d="M34.5776 214.276L31.3 215.833L6.5 164.223L9.77762 162.667L34.5776 214.276Z" fill="#A1C3FC"/>
<path d="M77.2282 212.2H31.314V215.828H77.2282V212.2Z" fill="#A1C3FC"/>
<path d="M64.0107 207.559L33.5963 207.681L13.6782 166.066L43.7114 166.011L64.0107 207.559Z" fill="#1C2868"/>
<path d="M31.1831 170.618H26.802V174.998H31.1831V170.618Z" fill="#56598D"/>
<path d="M27.2659 171.719H26.0674V172.918H27.2659V171.719Z" fill="#888BAF"/>
<path d="M47.8593 191.724H45.4883V194.094H47.8593V191.724Z" fill="#E94A47"/>
<path d="M50.4081 194.468H48.0371V196.838H50.4081V194.468Z" fill="#1D72D8"/>
<path d="M86.376 212.758H81.1409V215.116H86.376V212.758Z" fill="#1D72D8"/>
<path d="M91.8495 212.758H88.2336V215.116H91.8495V212.758Z" fill="#1D72D8"/>
<path d="M213.012 124.711C212.669 124.516 212.609 125.275 212.551 125.623C212.158 127.946 211.835 130.316 210.883 132.471C210.694 132.899 210.48 133.391 210.681 133.813C210.758 133.973 210.886 134.1 211.01 134.227C212.239 135.485 213.564 136.389 214.216 138.021C214.73 136.393 215.186 135.102 215.446 133.415C215.753 131.418 215.879 130.829 215.938 128.809C215.949 128.422 215.644 126.931 215.498 126.572C215.351 126.214 213.646 125.139 213.012 124.711Z" fill="#1D72D8"/>
<path d="M213.203 131.452C214.83 130.769 216.244 129.133 215.948 127.396C215.906 127.15 215.826 126.9 215.652 126.722C215.454 126.519 215.166 126.437 214.893 126.358C210.342 125.032 206.294 122.051 203.681 118.1C202.85 120.845 202.26 123.662 201.92 126.51C202.56 127.317 203.688 127.49 204.686 127.749C207.387 128.448 209.702 130.137 212.188 131.403C212.349 131.484 212.516 131.566 212.696 131.575C212.871 131.583 213.042 131.52 213.203 131.452Z" fill="url(#paint0_linear_24:671)"/>
<path d="M208.968 123.008C208.868 120.456 208.201 117.674 206.129 116.176C204.815 115.225 203.105 114.944 201.489 115.097C199.873 115.25 198.324 115.803 196.812 116.393C194.797 117.179 192.615 118.236 191.847 120.257C191.331 121.616 191.579 123.146 192.034 124.526C192.871 127.062 194.413 129.39 196.545 131C197.104 131.422 197.705 131.791 198.334 132.103C199.024 132.866 199.301 133.079 200.034 133.892C200.704 134.636 200.905 133.657 201.166 133.056C202.12 133.236 203.096 133.284 204.064 133.179C205.024 133.074 205.999 132.809 206.749 132.2C207.82 131.331 208.262 129.917 208.531 128.566C208.894 126.739 209.041 124.869 208.968 123.008Z" fill="url(#paint1_linear_24:671)"/>
<path d="M215.435 147.928C214.96 144.916 214.05 139.267 214.378 136.236C214.706 133.205 215.77 132.694 218.159 130.796C219.504 129.729 221.585 129.133 222.862 130.28C223.756 131.083 224.787 133.015 224.853 134.214C225.516 146.197 227.783 156.669 223.071 169.564C221.592 169.654 220.09 169.323 218.787 168.62C218.566 168.501 218.346 168.367 218.193 168.168C217.991 167.904 217.933 167.561 217.881 167.233C217.199 162.905 216.953 159.686 216.271 155.358C215.937 153.234 215.769 150.05 215.435 147.928Z" fill="#89B3F4"/>
<path d="M186.138 149.955C187.17 148.879 194.325 148.384 197.999 148.746C199.607 148.904 201.251 148.61 202.837 148.924C204.445 149.242 205.862 150.159 207.234 151.057C209.917 152.814 211.328 156.55 214.011 158.306C215.01 158.96 217.27 162.482 218.439 162.728C217.811 164.589 212.18 161.685 211.552 163.547C208.488 159.635 207.546 159.051 204.272 155.311C203.243 154.136 202.485 152.648 201.116 151.898C200.189 151.39 199.103 151.291 198.059 151.124C194.104 150.492 184.441 151.722 186.138 149.955Z" fill="url(#paint2_linear_24:671)"/>
<path d="M215.546 167.068C216.624 168.269 217.718 169.484 219.065 170.373C220.412 171.262 221.772 170.565 223.093 169.466C224.105 165.73 221.164 163.123 217.927 160.166C214.69 157.208 210.418 153.97 207.967 151.596C207.722 153.239 206.11 155.08 204.561 155.682C208.275 160.343 212.029 163.15 215.546 167.068Z" fill="#89B3F4"/>
<path d="M140.926 204.65C144.398 203.986 156.666 204.648 156.666 204.648C156.666 204.648 158.044 211.363 158.01 215.785C152.832 215.791 147.654 215.799 142.476 215.805C133.773 215.817 131.715 215.899 122.526 215.712C122.331 213.649 126.451 209.86 133.962 208.09C135.622 207.7 139.251 204.97 140.926 204.65Z" fill="#F7931E"/>
<path d="M132.073 204.65C135.545 203.986 147.813 204.648 147.813 204.648C147.813 204.648 149.191 211.363 149.156 215.785C143.978 215.791 138.8 215.799 133.622 215.805C124.92 215.817 122.862 215.899 113.673 215.712C113.478 213.649 117.598 209.86 125.109 208.09C126.769 207.7 130.398 204.97 132.073 204.65Z" fill="#FBB03B"/>
<path d="M182.774 175.659C193.141 181.335 201.432 190.884 212.743 194.318C221.23 196.895 230.79 195.557 238.332 190.894C242.214 188.493 245.728 184.988 246.702 180.532C246.798 180.09 246.867 179.617 246.705 179.194C246.507 178.676 246.009 178.344 245.538 178.05C241.729 175.676 237.75 173.572 233.643 171.76C231.59 172.45 231.057 175.501 228.97 176.08C227.753 176.417 226.511 175.76 225.39 175.179C218.201 171.455 189.608 145.967 181.876 151.592C161.955 166.084 151.257 181.682 135.517 204.772C141.789 205.141 156.79 204.895 156.79 204.895C156.79 204.895 160.158 202.102 164.168 197.526C167.611 193.596 166.918 188.875 169.579 187.7C172.24 186.525 176.873 182.197 177.704 179.412C178.206 177.731 178.4 175.485 180.093 175.016C181.001 174.765 181.946 175.206 182.774 175.659Z" fill="#151A4F"/>
<path d="M238.093 145.223C239.065 145.183 240.093 145.278 240.895 145.827C241.557 146.281 241.99 146.992 242.383 147.69C247.793 157.284 249.658 168.82 247.547 179.627C247.384 180.465 247.18 181.333 246.632 181.988C246.04 182.693 245.134 183.045 244.253 183.314C241.565 184.134 238.72 184.437 235.919 184.202C234.251 184.061 232.402 183.603 231.533 182.173C230.648 180.715 231.126 178.849 231.633 177.222C233.019 172.784 234.461 168.247 234.275 163.602C234.088 158.957 231.926 154.098 227.77 152.005C229.649 148.113 233.772 145.405 238.093 145.223Z" fill="url(#paint3_linear_24:671)"/>
<path d="M235.108 199.009C232.863 199.918 230.386 200.091 227.965 200.008C219.703 199.726 211.572 196.49 205.379 191.019C197.548 184.102 190.592 173.459 180.716 170.033C174.058 167.998 176.318 176.661 169.439 183.875C166.722 186.725 162.722 186.99 160.472 189.71C157.89 192.832 159.629 191.382 157.483 196.631C156.856 198.163 148.808 204.747 147.814 204.772C140.838 204.95 138.925 205.044 131.459 204.862C138.591 188.069 155.037 171.255 167.305 153.607C167.986 152.627 169.051 151.892 170.202 151.571C170.979 151.355 171.801 151.407 172.605 151.473C191.849 153.029 210.567 160.558 225.519 172.759C226.776 173.784 228.03 174.273 228.932 175.911C229.594 177.113 229.077 179.385 228.768 181.397C228.458 183.408 228.214 184.485 230.161 185.081C229.392 181.532 229.752 175.665 229.752 175.665C229.752 175.665 232.231 172.794 233.455 170.991C238.275 173.546 243.652 173.749 248.689 171.653C248.689 179.431 246.849 183.482 244.262 188.879C242.249 193.078 239.429 197.259 235.108 199.009Z" fill="url(#paint4_linear_24:671)"/>
<path d="M213.875 127.234C214.938 125.803 220.135 126.738 222.241 127.926C230.091 132.357 235.841 137.272 240.925 144.711C242.644 147.226 243.893 149.363 245.745 153.916C241.602 154.185 240.409 159.781 229.095 162.564C226.964 155.359 224.908 151.363 220.078 147.171C216.449 144.022 216.052 143.309 214.503 137.509C213.52 133.824 212.365 131.227 213.875 127.234Z" fill="url(#paint5_linear_24:671)"/>
<path d="M220.07 144.142C218.321 152.731 217.495 161.506 217.609 170.27C215.445 170.055 213.357 169.133 211.742 167.679C211.496 168.17 211.251 168.662 211.005 169.153" stroke="black" stroke-width="2.04387" stroke-miterlimit="10"/>
<path d="M207.173 124.329C208.861 123.741 210.638 122.583 210.817 120.807C210.977 119.233 209.82 117.864 208.739 116.708C207.592 115.479 206.445 114.25 205.298 113.022C205.054 112.76 204.799 112.492 204.468 112.357C203.996 112.166 203.462 112.281 202.972 112.418C200.511 113.11 198.227 114.308 195.965 115.498C195.138 115.932 194.303 116.373 193.599 116.985C191.627 118.699 190.8 121.881 191.918 124.241C194.005 123.456 196.469 124.305 198.643 124.802C201.456 125.445 204.449 125.28 207.173 124.329Z" fill="#428DFC"/>
<path d="M203.382 122.381C199.264 122.381 195.215 121.662 191.54 120.247C191.386 120.187 191.31 120.015 191.37 119.862C191.429 119.709 191.602 119.633 191.754 119.692C197.527 121.916 204.246 122.387 210.675 121.019C210.835 120.984 210.993 121.087 211.029 121.248C211.063 121.409 210.96 121.566 210.799 121.6C208.347 122.122 205.852 122.381 203.382 122.381Z" fill="#E94A47"/>
<path d="M197.424 122.577C195.163 122.577 193.061 122.244 191.124 121.578C190.969 121.524 190.886 121.355 190.94 121.2C190.993 121.044 191.162 120.962 191.318 121.015C196.543 122.814 203.05 122.101 210.656 118.898C210.807 118.834 210.982 118.905 211.046 119.056C211.11 119.207 211.039 119.382 210.888 119.445C205.936 121.532 201.432 122.577 197.424 122.577Z" fill="#E94A47"/>
<path d="M204.027 111.826C202.784 108.804 204.067 104.419 206.34 102.068C208.612 99.7165 211.925 98.5678 215.192 98.3948C216.22 98.3403 217.293 98.3839 218.211 98.849C219.129 99.3144 219.851 100.298 219.725 101.319C218.482 100.684 216.9 101.062 215.815 101.941C214.73 102.819 214.063 104.109 213.567 105.412C213.169 106.454 212.847 107.555 212.145 108.423C211.36 109.392 210.193 109.956 209.053 110.463C207.581 111.119 205.996 112.522 204.574 111.763C204.422 114.276 204.188 112.308 204.027 111.826Z" fill="#428DFC"/>
<path d="M203.974 111.469C203.904 111.469 203.84 111.418 203.828 111.345C203.392 108.807 203.361 106.227 203.733 103.676C204.088 101.245 204.768 99.5189 205.873 98.2449C207.308 96.592 209.53 95.9135 211.276 96.5958C211.353 96.6257 211.391 96.7119 211.361 96.7885C211.331 96.8651 211.244 96.9025 211.168 96.8729C209.537 96.2356 207.452 96.88 206.099 98.44C205.032 99.6687 204.374 101.346 204.028 103.719C203.66 106.238 203.692 108.787 204.122 111.295C204.136 111.376 204.081 111.453 204 111.467C203.991 111.469 203.983 111.469 203.974 111.469Z" fill="#428DFC"/>
<path d="M197.904 133.199C197.248 133.199 196.529 132.984 195.878 132.595C194.395 131.706 193.708 130.219 194.314 129.21C194.627 128.69 195.247 128.392 196.016 128.392C196.671 128.392 197.391 128.606 198.041 128.996C199.524 129.885 200.211 131.372 199.605 132.381C199.293 132.901 198.672 133.199 197.904 133.199ZM196.015 128.986C195.461 128.986 195.027 129.179 194.824 129.515C194.404 130.215 195.027 131.391 196.184 132.085C196.743 132.42 197.354 132.604 197.903 132.604C198.458 132.604 198.892 132.411 199.094 132.074C199.514 131.375 198.891 130.198 197.734 129.505C197.175 129.171 196.565 128.986 196.015 128.986Z" fill="#23286B"/>
<path d="M205.813 110.489H202.37V113.928H205.813V110.489Z" fill="#E94A47"/>
<path d="M249.754 199.184H217.536V206.799H249.754V199.184Z" fill="#D62929"/>
<path d="M243.36 206.799H211.142V214.414H243.36V206.799Z" fill="#428DFC"/>
<path d="M250 200.781H219.75V205.202H250V200.781Z" fill="#D6D7D8"/>
<path d="M231.8 208.631H220.487V212.316H231.8V208.631Z" fill="#EEEEEE"/>
<path d="M172.94 152.277L185.692 146.761C185.692 146.761 214.289 156.469 214.096 157.131C213.903 157.793 206.56 164.854 205.787 165.295C205.014 165.735 172.94 152.277 172.94 152.277Z" fill="url(#paint6_linear_24:671)"/>
<path d="M180.21 153.504C180.155 153.504 180.103 153.474 180.077 153.423C180.04 153.35 180.069 153.261 180.142 153.223L187.605 149.417C187.679 149.38 187.768 149.409 187.805 149.482C187.843 149.555 187.814 149.645 187.74 149.682L180.277 153.488C180.256 153.499 180.232 153.504 180.21 153.504Z" fill="#23286B"/>
<path d="M183.398 155.241C183.346 155.241 183.295 155.214 183.268 155.165C183.227 155.094 183.253 155.003 183.325 154.963L190.715 150.826C190.787 150.786 190.878 150.811 190.918 150.882C190.958 150.954 190.933 151.045 190.861 151.085L183.47 155.222C183.447 155.235 183.422 155.241 183.398 155.241Z" fill="#23286B"/>
<path d="M188.977 158.054C188.928 158.054 188.88 158.03 188.851 157.986C188.807 157.916 188.828 157.825 188.897 157.781L197.229 152.486C197.298 152.443 197.39 152.462 197.434 152.531C197.478 152.601 197.458 152.692 197.389 152.736L189.056 158.031C189.032 158.047 189.004 158.054 188.977 158.054Z" fill="#23286B"/>
<path d="M202.743 161.613C202.698 161.613 202.652 161.592 202.624 161.552C202.575 161.486 202.589 161.393 202.655 161.344L209.321 156.462C209.387 156.414 209.48 156.428 209.529 156.494C209.578 156.561 209.564 156.653 209.497 156.702L202.832 161.584C202.806 161.603 202.775 161.613 202.743 161.613Z" fill="#23286B"/>
<path d="M197.599 159.213C197.55 159.213 197.502 159.189 197.473 159.145C197.429 159.076 197.449 158.984 197.519 158.94L204.402 154.555C204.471 154.511 204.564 154.531 204.608 154.6C204.652 154.67 204.631 154.761 204.562 154.805L197.678 159.19C197.654 159.205 197.627 159.213 197.599 159.213Z" fill="#23286B"/>
<path d="M200.69 150.487C199.83 150.674 197.554 151.347 196.667 151.814C195.854 152.242 194.662 153.009 194.603 153.926C194.524 155.145 196.589 153.991 197.705 153.576C199.859 152.776 202.367 152.478 205.716 153.037C206.473 153.163 207.492 152.691 207.043 152.425C206.595 152.16 206.285 151.777 205.424 151.347C204.409 150.84 201.832 150.238 200.69 150.487Z" fill="#FFBEB6"/>
<path d="M211.005 165.065C208.31 165.065 199.289 163.222 194.471 161.029C193.159 160.432 190.023 156.674 189.361 156.318C187.229 155.174 183.356 153.732 183.204 154.057C181.734 156.503 185.833 155.803 187.613 158.093C184.321 156.925 181.721 155.746 178.429 154.578C178.819 157.714 181.111 156.845 182.224 158.46C182.443 158.777 184.116 164.041 184.456 164.225C184.88 164.453 185.393 164.403 185.873 164.356C188.483 164.097 191.121 164.112 193.729 164.397C195.408 164.58 205.689 170.041 207.33 170.447C207.402 169.417 210.643 166.033 211.005 165.065Z" fill="url(#paint7_linear_24:671)"/>
<path d="M222.783 133.98C221.945 131.898 219.003 129.934 216.818 130.457C214.443 131.025 214.191 133.976 214.215 136.416C214.256 140.578 214.604 146.039 214.82 149.076C215.138 153.565 214.192 157.992 213.347 162.412C213.196 163.227 212.909 163.913 212.537 164.496C206.395 164.834 200.167 163.571 194.662 160.828C193.438 162.793 192.72 165.07 192.595 167.382C192.57 167.849 192.578 168.353 192.846 168.737C193.15 169.172 193.702 169.342 194.214 169.482C202.225 171.657 209.221 173.216 217.497 173.872C217.747 173.895 217.965 173.77 218.153 173.54C218.305 173.457 218.425 173.343 218.505 173.189C220.339 169.681 221.533 164.666 222.343 160.294C223.231 155.497 223.597 151.106 224.209 146.266C224.713 142.277 224.301 137.753 222.783 133.98Z" fill="#A1C3FC"/>
<path d="M250 204.125H219.75V204.682H250V204.125Z" fill="#EEEEEE"/>
<path d="M250 203.01H219.75V203.567H250V203.01Z" fill="#EEEEEE"/>
<path d="M250 201.895H219.75V202.453H250V201.895Z" fill="#EEEEEE"/>
<path d="M250 200.781H219.75V201.338H250V200.781Z" fill="#EEEEEE"/>
<path d="M237.122 212.735C238.293 212.735 239.242 211.787 239.242 210.617C239.242 209.448 238.293 208.5 237.122 208.5C235.951 208.5 235.002 209.448 235.002 210.617C235.002 211.787 235.951 212.735 237.122 212.735Z" fill="#23286B"/>
<path d="M215.974 137.94C216.014 137.903 216.016 137.865 215.979 137.825C215.942 137.785 215.903 137.784 215.864 137.821C215.824 137.857 215.822 137.896 215.859 137.936C215.896 137.975 215.936 137.938 215.974 137.94ZM218.49 130.203C218.528 130.204 218.568 130.167 218.57 130.129C218.571 130.091 218.534 130.051 218.496 130.05C218.458 130.049 218.418 130.085 218.416 130.124C218.375 130.198 218.45 130.24 218.49 130.203ZM216.965 134.023C217.003 134.024 217.042 134.026 217.082 133.989C217.083 133.951 217.084 133.912 217.047 133.872C217.009 133.871 216.971 133.87 216.931 133.907C216.89 133.982 216.927 134.021 216.965 134.023ZM225.334 140.474C225.41 140.515 225.488 140.48 225.529 140.404C225.57 140.329 225.535 140.251 225.459 140.21C225.384 140.169 225.306 140.204 225.264 140.28C225.185 140.354 225.258 140.471 225.334 140.474ZM221.926 139.12C222.001 139.161 222.079 139.126 222.121 139.05C222.162 138.975 222.126 138.896 222.051 138.856C221.975 138.814 221.897 138.85 221.856 138.925C221.815 139 221.851 139.078 221.926 139.12ZM218.519 137.727C218.594 137.768 218.673 137.733 218.714 137.657C218.755 137.582 218.72 137.504 218.644 137.463C218.569 137.422 218.49 137.457 218.449 137.533C218.408 137.608 218.443 137.686 218.519 137.727ZM219.75 145.987C219.791 145.911 219.794 145.835 219.758 145.757C219.683 145.716 219.606 145.713 219.528 145.748C219.487 145.824 219.484 145.9 219.521 145.94C219.593 146.058 219.67 146.061 219.75 145.987ZM217.116 143.433C217.157 143.357 217.16 143.281 217.124 143.203C217.049 143.162 216.972 143.159 216.894 143.194C216.853 143.27 216.85 143.346 216.887 143.386C216.961 143.465 217.076 143.47 217.116 143.433ZM225.032 133.093C225.109 133.096 225.188 133.022 225.191 132.946C225.194 132.869 225.12 132.79 225.044 132.786C224.967 132.783 224.887 132.857 224.884 132.934C224.881 133.011 224.955 133.09 225.032 133.093ZM221.341 133.11C221.418 133.113 221.498 133.039 221.501 132.962C221.504 132.886 221.43 132.806 221.353 132.803C221.276 132.8 221.197 132.874 221.193 132.951C221.191 133.028 221.265 133.107 221.341 133.11ZM217.69 133.128C217.766 133.131 217.846 133.057 217.849 132.981C217.852 132.904 217.778 132.825 217.701 132.821C217.625 132.819 217.545 132.892 217.542 132.969C217.538 133.084 217.613 133.126 217.69 133.128ZM217.16 148.463C217.2 148.426 217.242 148.312 217.167 148.271C217.13 148.231 217.016 148.189 216.975 148.264C216.935 148.301 216.893 148.415 216.968 148.456C217.003 148.534 217.08 148.536 217.16 148.463ZM223.414 136.296C223.491 136.299 223.569 136.263 223.571 136.187C223.574 136.11 223.537 136.07 223.462 136.029C223.385 136.027 223.307 136.062 223.305 136.139C223.302 136.215 223.337 136.293 223.414 136.296ZM220.158 136.022C220.234 136.025 220.313 135.989 220.315 135.913C220.318 135.836 220.281 135.796 220.206 135.755C220.129 135.753 220.051 135.788 220.048 135.865C220.045 135.941 220.081 136.019 220.158 136.022ZM216.902 135.71C216.979 135.712 217.057 135.677 217.06 135.6C217.063 135.524 217.025 135.484 216.95 135.443C216.874 135.44 216.795 135.476 216.793 135.552C216.789 135.667 216.826 135.707 216.902 135.71ZM219.841 142.497C219.916 142.539 219.994 142.503 220.036 142.428C220.077 142.352 220.041 142.274 219.966 142.233C219.89 142.192 219.812 142.227 219.771 142.303C219.73 142.378 219.764 142.494 219.841 142.497ZM216.937 141.008C217.012 141.049 217.091 141.014 217.13 140.977C217.171 140.902 217.136 140.823 217.06 140.783C216.985 140.741 216.906 140.777 216.865 140.852C216.826 140.888 216.861 140.967 216.937 141.008ZM221.147 130.071C221.225 130.035 221.265 129.998 221.229 129.92C221.194 129.842 221.118 129.801 221.079 129.838C221 129.873 220.959 129.949 220.995 130.026C220.995 130.026 221.07 130.068 221.147 130.071ZM218.037 131.03C218.115 130.995 218.156 130.92 218.121 130.842C218.085 130.764 218.009 130.723 217.931 130.758C217.853 130.794 217.812 130.869 217.849 130.909C217.883 131.025 217.959 131.066 218.037 131.03C217.999 131.029 218.037 131.03 218.037 131.03ZM220.422 149.62C220.497 149.661 220.576 149.626 220.617 149.55C220.658 149.475 220.623 149.396 220.547 149.356C220.472 149.314 220.393 149.35 220.352 149.425C220.311 149.501 220.347 149.579 220.422 149.62ZM217.064 147.922C217.14 147.963 217.218 147.928 217.259 147.852C217.3 147.777 217.265 147.699 217.189 147.658C217.114 147.616 217.036 147.652 216.994 147.727C216.955 147.765 216.989 147.881 217.064 147.922ZM221.817 133.78C221.895 133.745 221.936 133.669 221.9 133.591C221.865 133.513 221.789 133.472 221.711 133.508C221.633 133.543 221.592 133.618 221.627 133.696C221.625 133.773 221.738 133.816 221.817 133.78ZM218.199 134.952C218.277 134.916 218.318 134.841 218.282 134.763C218.247 134.685 218.171 134.644 218.093 134.679C218.015 134.715 217.974 134.79 218.009 134.868C218.047 134.908 218.121 134.987 218.199 134.952ZM220.898 141.96C220.975 141.963 221.054 141.889 221.057 141.813C221.06 141.736 220.986 141.657 220.91 141.653C220.833 141.651 220.753 141.725 220.75 141.801C220.748 141.878 220.821 141.958 220.898 141.96ZM217.143 141.668C217.219 141.671 217.299 141.597 217.302 141.52C217.305 141.444 217.231 141.364 217.154 141.361C217.078 141.358 216.998 141.432 216.995 141.509C216.992 141.586 217.027 141.664 217.143 141.668ZM221.341 144.511C221.418 144.513 221.498 144.439 221.501 144.363C221.504 144.286 221.43 144.207 221.353 144.203C221.276 144.2 221.198 144.236 221.193 144.351C221.191 144.428 221.265 144.508 221.341 144.511ZM217.592 144.065C217.668 144.067 217.748 143.993 217.751 143.917C217.754 143.84 217.718 143.762 217.603 143.757C217.526 143.755 217.447 143.829 217.405 143.903C217.441 143.982 217.515 144.061 217.592 144.065ZM218.89 137.05C218.968 137.014 219.009 136.939 219.012 136.863C218.976 136.784 218.901 136.743 218.824 136.741C218.746 136.776 218.705 136.851 218.702 136.928C218.699 137.004 218.813 137.047 218.89 137.05Z" fill="white"/>
<path d="M213.028 124.723C213.597 126.52 211.649 132.208 211.607 132.412C211.566 132.608 214.335 138.829 214.335 138.829C214.335 138.829 215.452 135.251 215.8 133.444C216.222 131.257 216.981 128.698 216.095 126.653C216.038 126.521 213.355 124.966 213.028 124.723Z" fill="#428DFC"/>
<defs>
<linearGradient id="paint0_linear_24:671" x1="220.197" y1="123.985" x2="206.165" y2="124.986" gradientUnits="userSpaceOnUse">
<stop stop-color="#FFBEB6"/>
<stop offset="1" stop-color="#F2A19C"/>
</linearGradient>
<linearGradient id="paint1_linear_24:671" x1="206.492" y1="124.574" x2="189.078" y2="124.692" gradientUnits="userSpaceOnUse">
<stop stop-color="#FFBEB6"/>
<stop offset="1" stop-color="#F2A19C"/>
</linearGradient>
<linearGradient id="paint2_linear_24:671" x1="206.37" y1="156.12" x2="189.996" y2="155.937" gradientUnits="userSpaceOnUse">
<stop stop-color="#FFBEB6"/>
<stop offset="1" stop-color="#F2A19C"/>
</linearGradient>
<linearGradient id="paint3_linear_24:671" x1="237.331" y1="167.16" x2="242.373" y2="147.184" gradientUnits="userSpaceOnUse">
<stop stop-color="#428DFC"/>
<stop offset="1" stop-color="#1D72D8"/>
</linearGradient>
<linearGradient id="paint4_linear_24:671" x1="192.606" y1="168.315" x2="187.835" y2="208.333" gradientUnits="userSpaceOnUse">
<stop stop-color="#23286B"/>
<stop offset="1" stop-color="#151A4F"/>
</linearGradient>
<linearGradient id="paint5_linear_24:671" x1="218.719" y1="141.781" x2="247.88" y2="156.332" gradientUnits="userSpaceOnUse">
<stop stop-color="#A1C3FC"/>
<stop offset="1" stop-color="#78A9EF"/>
</linearGradient>
<linearGradient id="paint6_linear_24:671" x1="172.94" y1="156.033" x2="214.097" y2="156.033" gradientUnits="userSpaceOnUse">
<stop stop-color="#EEEEEE"/>
<stop offset="1" stop-color="#D6D7D8"/>
</linearGradient>
<linearGradient id="paint7_linear_24:671" x1="194.695" y1="159.31" x2="195.119" y2="169.461" gradientUnits="userSpaceOnUse">
<stop stop-color="#FFBEB6"/>
<stop offset="1" stop-color="#F2A19C"/>
</linearGradient>
</defs>
</svg>
