<svg width="16" height="16" viewBox="0 0 16 16" fill="none" xmlns="http://www.w3.org/2000/svg">
<path fill-rule="evenodd" clip-rule="evenodd" d="M13 0C14.6569 0 16 1.34315 16 3V13C16 14.6569 14.6569 16 13 16H3C1.34315 16 0 14.6569 0 13V3C0 1.34315 1.34315 0 3 0H13ZM2 13C2 13.5523 2.44772 14 3 14H13C13.5523 14 14 13.5523 14 13V9H11.874C11.4464 10.6613 9.97831 11.905 8.20583 11.9948L8 12C6.20519 12 4.68648 10.8179 4.17993 9.1898L4.12602 9H2V13ZM13 2H3C2.44772 2 2 2.44772 2 3V7H5C5.51284 7 5.93551 7.38604 5.99327 7.88338L6 8C6 9.10457 6.89543 10 8 10C9.05436 10 9.91817 9.18412 9.99451 8.14926L10.0067 7.88338C10.0601 7.4243 10.4243 7.06005 10.8834 7.00673L11 7H14V3C14 2.44772 13.5523 2 13 2Z" fill="#252526"/>
</svg>
